ffmpeg started on 2025-05-28 at 11:24:14
Report written to "D:\Convert\FFMetrics\reports\ssim_report-6.txt"
Log level: 32
Command line:
ffmpeg -hide_banner -nostdin -i "G:\\\xc0\xed\xe8\xec\xe5\\\xce\xed\xe3\xee\xe8\xed\xe3\xe8\\!_36_\xce\xf1\xe5\xed\xfc_2024\\JamClub\\SAO\\\xc0\xeb\xfc\xf2\xe5\xf0\xed\xe0\xf2\xe8\xe2\xed\xe0\xff \xab\xcf\xf0\xe8\xe7\xf0\xe0\xf7\xed\xe0\xff \xef\xf3\xeb\xff\xbb\\\xd2\xc2-2\\JamClub_Sword_Art_Online_Alternative_Gun_Gale_Online_II_02_1080p_HEVC.mkv" -i "G:\\\xc0\xed\xe8\xec\xe5\\\xce\xed\xe3\xee\xe8\xed\xe3\xe8\\!_36_\xce\xf1\xe5\xed\xfc_2024\\JamClub\\SAO\\\xc0\xeb\xfc\xf2\xe5\xf0\xed\xe0\xf2\xe8\xe2\xed\xe0\xff \xab\xcf\xf0\xe8\xe7\xf0\xe0\xf7\xed\xe0\xff \xef\xf3\xeb\xff\xbb\\\xd2\xc2-2\\JamClub_Sword_Art_Online_Alternative_Gun_Gale_Online_II_02_1080p.mp4" -lavfi "[0:v]settb=AVTB,setpts=PTS-STARTPTS,format=pix_fmts=yuv420p10,fps=24000/1001,scale=1920:1080:flags=bicubic[main];[1:v]settb=AVTB,setpts=PTS-STARTPTS,format=pix_fmts=yuv420p,fps=24000/1001,scale=1920:1080:flags=bicubic[ref];[main][ref]ssim=eof_action=endall:stats_file='D\\:/Convert/FFMetrics/logs/ssim_logfile-6.txt'" -f null -
Input #0, matroska,webm, from 'G:\Аниме\Онгоинги\!_36_Осень_2024\JamClub\SAO\Альтернативная «Призрачная пуля»\ТВ-2\JamClub_Sword_Art_Online_Alternative_Gun_Gale_Online_II_02_1080p_HEVC.mkv':
  Metadata:
    COMPATIBLE_BRANDS: isomiso2avc1mp41
    MAJOR_BRAND     : isom
    MINOR_VERSION   : 512
    ENCODER         : Lavf61.7.100
  Duration: 00:24:02.26, start: -0.001000, bitrate: 1475 kb/s
  Stream #0:0: Video: hevc (Main 10), yuv420p10le(tv, bt709, progressive), 1920x1080 [SAR 1:1 DAR 16:9], 23.98 fps, 23.98 tbr, 1k tbn (default)
      Metadata:
        HANDLER_NAME    : VideoHandler
        VENDOR_ID       : [0][0][0][0]
        ENCODER         : Lavc61.19.100 libx265
        BPS             : 1277543
        DURATION        : 00:24:02.190708333
        NUMBER_OF_FRAMES: 34578
        NUMBER_OF_BYTES : 230307561
        _STATISTICS_WRITING_APP: mkvpropedit v66.0.0 ('Josie') 64-bit
        _STATISTICS_WRITING_DATE_UTC: 2025-05-27 15:13:15
        _STATISTICS_TAGS: BPS DURATION NUMBER_OF_FRAMES NUMBER_OF_BYTES
  Stream #0:1(eng): Audio: aac (LC), 48000 Hz, stereo, fltp (default)
      Metadata:
        HANDLER_NAME    : SoundHandler
        VENDOR_ID       : [0][0][0][0]
        ENCODER         : Lavc61.19.100 aac
        BPS             : 193925
        DURATION        : 00:24:02.221000000
        NUMBER_OF_FRAMES: 67605
        NUMBER_OF_BYTES : 34960361
        _STATISTICS_WRITING_APP: mkvpropedit v66.0.0 ('Josie') 64-bit
        _STATISTICS_WRITING_DATE_UTC: 2025-05-27 15:13:15
        _STATISTICS_TAGS: BPS DURATION NUMBER_OF_FRAMES NUMBER_OF_BYTES
Input #1, mov,mp4,m4a,3gp,3g2,mj2, from 'G:\Аниме\Онгоинги\!_36_Осень_2024\JamClub\SAO\Альтернативная «Призрачная пуля»\ТВ-2\JamClub_Sword_Art_Online_Alternative_Gun_Gale_Online_II_02_1080p.mp4':
  Metadata:
    major_brand     : isom
    minor_version   : 512
    compatible_brands: isomiso2avc1mp41
    encoder         : Lavf60.16.100
  Duration: 00:24:02.24, start: 0.000000, bitrate: 4961 kb/s
  Stream #1:0[0x1](und): Video: h264 (High) (avc1 / 0x31637661), yuv420p(progressive), 1920x1080 [SAR 1:1 DAR 16:9], 4763 kb/s, 23.98 fps, 23.98 tbr, 90k tbn (default)
      Metadata:
        handler_name    : VideoHandler
        vendor_id       : [0][0][0][0]
  Stream #1:1[0x2](eng): Audio: aac (LC) (mp4a / 0x6134706D), 48000 Hz, stereo, fltp, 191 kb/s (default)
      Metadata:
        handler_name    : SoundHandler
        vendor_id       : [0][0][0][0]
Stream mapping:
  Stream #0:0 (hevc) -> settb:default
  Stream #1:0 (h264) -> settb:default
  ssim:default -> Stream #0:0 (wrapped_avframe)
  Stream #0:1 -> #0:1 (aac (native) -> pcm_s16le (native))
Output #0, null, to 'pipe:':
  Metadata:
    COMPATIBLE_BRANDS: isomiso2avc1mp41
    MAJOR_BRAND     : isom
    MINOR_VERSION   : 512
    encoder         : Lavf61.7.100
  Stream #0:0: Video: wrapped_avframe, yuv420p10le(tv, bt709, progressive), 1920x1080 [SAR 1:1 DAR 16:9], q=2-31, 200 kb/s, 23.98 fps, 23.98 tbn
      Metadata:
        encoder         : Lavc61.19.100 wrapped_avframe
  Stream #0:1(eng): Audio: pcm_s16le, 48000 Hz, stereo, s16, 1536 kb/s (default)
      Metadata:
        HANDLER_NAME    : SoundHandler
        VENDOR_ID       : [0][0][0][0]
        _STATISTICS_TAGS: BPS DURATION NUMBER_OF_FRAMES NUMBER_OF_BYTES
        BPS             : 193925
        DURATION        : 00:24:02.221000000
        NUMBER_OF_FRAMES: 67605
        NUMBER_OF_BYTES : 34960361
        _STATISTICS_WRITING_APP: mkvpropedit v66.0.0 ('Josie') 64-bit
        _STATISTICS_WRITING_DATE_UTC: 2025-05-27 15:13:15
        encoder         : Lavc61.19.100 pcm_s16le
frame=  112 fps=0.0 q=-0.0 size=N/A time=00:00:04.67 bitrate=N/A speed=8.88x    frame=  269 fps=261 q=-0.0 size=N/A time=00:00:11.21 bitrate=N/A speed=10.9x    frame=  463 fps=298 q=-0.0 size=N/A time=00:00:19.31 bitrate=N/A speed=12.4x    frame=  664 fps=322 q=-0.0 size=N/A time=00:00:27.69 bitrate=N/A speed=13.4x    frame=  894 fps=346 q=-0.0 size=N/A time=00:00:37.28 bitrate=N/A speed=14.4x    frame= 1127 fps=365 q=-0.0 size=N/A time=00:00:47.00 bitrate=N/A speed=15.2x    frame= 1381 fps=382 q=-0.0 size=N/A time=00:00:57.59 bitrate=N/A speed=15.9x    frame= 1609 fps=390 q=-0.0 size=N/A time=00:01:07.10 bitrate=N/A speed=16.3x    frame= 1841 fps=396 q=-0.0 size=N/A time=00:01:16.78 bitrate=N/A speed=16.5x    frame= 2041 fps=396 q=-0.0 size=N/A time=00:01:25.12 bitrate=N/A speed=16.5x    frame= 2262 fps=398 q=-0.0 size=N/A time=00:01:34.34 bitrate=N/A speed=16.6x    frame= 2469 fps=399 q=-0.0 size=N/A time=00:01:42.97 bitrate=N/A speed=16.6x    frame= 2660 fps=396 q=-0.0 size=N/A time=00:01:50.94 bitrate=N/A speed=16.5x    frame= 2819 fps=391 q=-0.0 size=N/A time=00:01:57.57 bitrate=N/A speed=16.3x    frame= 2994 fps=387 q=-0.0 size=N/A time=00:02:04.87 bitrate=N/A speed=16.1x    frame= 3139 fps=380 q=-0.0 size=N/A time=00:02:10.92 bitrate=N/A speed=15.9x    frame= 3333 fps=380 q=-0.0 size=N/A time=00:02:19.01 bitrate=N/A speed=15.8x    frame= 3504 fps=377 q=-0.0 size=N/A time=00:02:26.14 bitrate=N/A speed=15.7x    frame= 3672 fps=374 q=-0.0 size=N/A time=00:02:33.15 bitrate=N/A speed=15.6x    frame= 3880 fps=376 q=-0.0 size=N/A time=00:02:41.82 bitrate=N/A speed=15.7x    frame= 4122 fps=380 q=-0.0 size=N/A time=00:02:51.92 bitrate=N/A speed=15.9x    frame= 4380 fps=386 q=-0.0 size=N/A time=00:03:02.68 bitrate=N/A speed=16.1x    frame= 4648 fps=392 q=-0.0 size=N/A time=00:03:13.86 bitrate=N/A speed=16.3x    frame= 4911 fps=397 q=-0.0 size=N/A time=00:03:24.82 bitrate=N/A speed=16.6x    frame= 5161 fps=400 q=-0.0 size=N/A time=00:03:35.25 bitrate=N/A speed=16.7x    frame= 5425 fps=405 q=-0.0 size=N/A time=00:03:46.26 bitrate=N/A speed=16.9x    frame= 5688 fps=408 q=-0.0 size=N/A time=00:03:57.23 bitrate=N/A speed=  17x    frame= 5898 fps=409 q=-0.0 size=N/A time=00:04:05.99 bitrate=N/A speed=  17x    frame= 6150 fps=411 q=-0.0 size=N/A time=00:04:16.50 bitrate=N/A speed=17.1x    frame= 6404 fps=414 q=-0.0 size=N/A time=00:04:27.10 bitrate=N/A speed=17.3x    frame= 6664 fps=417 q=-0.0 size=N/A time=00:04:37.94 bitrate=N/A speed=17.4x    frame= 6943 fps=421 q=-0.0 size=N/A time=00:04:49.58 bitrate=N/A speed=17.5x    frame= 7202 fps=423 q=-0.0 size=N/A time=00:05:00.38 bitrate=N/A speed=17.7x    frame= 7482 fps=427 q=-0.0 size=N/A time=00:05:12.06 bitrate=N/A speed=17.8x    frame= 7732 fps=428 q=-0.0 size=N/A time=00:05:22.48 bitrate=N/A speed=17.9x    frame= 7968 fps=429 q=-0.0 size=N/A time=00:05:32.33 bitrate=N/A speed=17.9x    frame= 8205 fps=430 q=-0.0 size=N/A time=00:05:42.21 bitrate=N/A speed=17.9x    frame= 8448 fps=431 q=-0.0 size=N/A time=00:05:52.35 bitrate=N/A speed=  18x    frame= 8705 fps=433 q=-0.0 size=N/A time=00:06:03.07 bitrate=N/A speed=18.1x    frame= 8940 fps=433 q=-0.0 size=N/A time=00:06:12.87 bitrate=N/A speed=18.1x    frame= 9210 fps=436 q=-0.0 size=N/A time=00:06:24.13 bitrate=N/A speed=18.2x    frame= 9432 fps=435 q=-0.0 size=N/A time=00:06:33.39 bitrate=N/A speed=18.2x    frame= 9657 fps=436 q=-0.0 size=N/A time=00:06:42.77 bitrate=N/A speed=18.2x    frame= 9895 fps=436 q=-0.0 size=N/A time=00:06:52.70 bitrate=N/A speed=18.2x    frame=10139 fps=437 q=-0.0 size=N/A time=00:07:02.88 bitrate=N/A speed=18.2x    frame=10377 fps=437 q=-0.0 size=N/A time=00:07:12.80 bitrate=N/A speed=18.2x    frame=10625 fps=438 q=-0.0 size=N/A time=00:07:23.15 bitrate=N/A speed=18.3x    frame=10883 fps=440 q=-0.0 size=N/A time=00:07:33.91 bitrate=N/A speed=18.3x    frame=11126 fps=440 q=-0.0 size=N/A time=00:07:44.04 bitrate=N/A speed=18.4x    frame=11318 fps=439 q=-0.0 size=N/A time=00:07:52.05 bitrate=N/A speed=18.3x    frame=11561 fps=439 q=-0.0 size=N/A time=00:08:02.19 bitrate=N/A speed=18.3x    frame=11805 fps=440 q=-0.0 size=N/A time=00:08:12.36 bitrate=N/A speed=18.4x    frame=12036 fps=440 q=-0.0 size=N/A time=00:08:22.00 bitrate=N/A speed=18.4x    frame=12295 fps=442 q=-0.0 size=N/A time=00:08:32.80 bitrate=N/A speed=18.4x    frame=12567 fps=443 q=-0.0 size=N/A time=00:08:44.14 bitrate=N/A speed=18.5x    frame=12810 fps=443 q=-0.0 size=N/A time=00:08:54.28 bitrate=N/A speed=18.5x    frame=13034 fps=443 q=-0.0 size=N/A time=00:09:03.62 bitrate=N/A speed=18.5x    frame=13277 fps=444 q=-0.0 size=N/A time=00:09:13.76 bitrate=N/A speed=18.5x    frame=13549 fps=445 q=-0.0 size=N/A time=00:09:25.10 bitrate=N/A speed=18.6x    frame=13762 fps=445 q=-0.0 size=N/A time=00:09:33.99 bitrate=N/A speed=18.6x    frame=13973 fps=444 q=-0.0 size=N/A time=00:09:42.79 bitrate=N/A speed=18.5x    frame=14162 fps=443 q=-0.0 size=N/A time=00:09:50.67 bitrate=N/A speed=18.5x    frame=14362 fps=442 q=-0.0 size=N/A time=00:09:59.01 bitrate=N/A speed=18.4x    frame=14536 fps=441 q=-0.0 size=N/A time=00:10:06.27 bitrate=N/A speed=18.4x    frame=14728 fps=439 q=-0.0 size=N/A time=00:10:14.28 bitrate=N/A speed=18.3x    frame=14904 fps=438 q=-0.0 size=N/A time=00:10:21.62 bitrate=N/A speed=18.3x    frame=15093 fps=437 q=-0.0 size=N/A time=00:10:29.50 bitrate=N/A speed=18.2x    frame=15294 fps=436 q=-0.0 size=N/A time=00:10:37.88 bitrate=N/A speed=18.2x    frame=15501 fps=436 q=-0.0 size=N/A time=00:10:46.52 bitrate=N/A speed=18.2x    frame=15711 fps=435 q=-0.0 size=N/A time=00:10:55.27 bitrate=N/A speed=18.2x    frame=15950 fps=436 q=-0.0 size=N/A time=00:11:05.24 bitrate=N/A speed=18.2x    frame=16170 fps=435 q=-0.0 size=N/A time=00:11:14.42 bitrate=N/A speed=18.2x    frame=16355 fps=434 q=-0.0 size=N/A time=00:11:22.13 bitrate=N/A speed=18.1x    frame=16554 fps=434 q=-0.0 size=N/A time=00:11:30.43 bitrate=N/A speed=18.1x    frame=16750 fps=433 q=-0.0 size=N/A time=00:11:38.61 bitrate=N/A speed=18.1x    frame=16930 fps=432 q=-0.0 size=N/A time=00:11:46.12 bitrate=N/A speed=  18x    frame=17089 fps=430 q=-0.0 size=N/A time=00:11:52.75 bitrate=N/A speed=  18x    frame=17294 fps=430 q=-0.0 size=N/A time=00:12:01.30 bitrate=N/A speed=17.9x    frame=17506 fps=430 q=-0.0 size=N/A time=00:12:10.14 bitrate=N/A speed=17.9x    frame=17684 fps=429 q=-0.0 size=N/A time=00:12:17.57 bitrate=N/A speed=17.9x    frame=17859 fps=428 q=-0.0 size=N/A time=00:12:24.86 bitrate=N/A speed=17.8x    frame=18047 fps=427 q=-0.0 size=N/A time=00:12:32.71 bitrate=N/A speed=17.8x    frame=18318 fps=428 q=-0.0 size=N/A time=00:12:44.01 bitrate=N/A speed=17.9x    frame=18525 fps=428 q=-0.0 size=N/A time=00:12:52.64 bitrate=N/A speed=17.8x    frame=18767 fps=428 q=-0.0 size=N/A time=00:13:02.74 bitrate=N/A speed=17.9x    frame=18968 fps=428 q=-0.0 size=N/A time=00:13:11.12 bitrate=N/A speed=17.8x    frame=19220 fps=428 q=-0.0 size=N/A time=00:13:21.63 bitrate=N/A speed=17.9x    frame=19475 fps=429 q=-0.0 size=N/A time=00:13:32.26 bitrate=N/A speed=17.9x    frame=19723 fps=430 q=-0.0 size=N/A time=00:13:42.61 bitrate=N/A speed=17.9x    frame=19997 fps=431 q=-0.0 size=N/A time=00:13:54.04 bitrate=N/A speed=  18x    frame=20265 fps=432 q=-0.0 size=N/A time=00:14:05.21 bitrate=N/A speed=  18x    frame=20537 fps=433 q=-0.0 size=N/A time=00:14:16.56 bitrate=N/A speed=18.1x    frame=20797 fps=434 q=-0.0 size=N/A time=00:14:27.40 bitrate=N/A speed=18.1x    frame=21053 fps=434 q=-0.0 size=N/A time=00:14:38.08 bitrate=N/A speed=18.1x    frame=21298 fps=435 q=-0.0 size=N/A time=00:14:48.30 bitrate=N/A speed=18.1x    frame=21543 fps=435 q=-0.0 size=N/A time=00:14:58.52 bitrate=N/A speed=18.2x    frame=21794 fps=436 q=-0.0 size=N/A time=00:15:08.99 bitrate=N/A speed=18.2x    frame=22028 fps=436 q=-0.0 size=N/A time=00:15:18.75 bitrate=N/A speed=18.2x    frame=22300 fps=437 q=-0.0 size=N/A time=00:15:30.09 bitrate=N/A speed=18.2x    frame=22529 fps=437 q=-0.0 size=N/A time=00:15:39.64 bitrate=N/A speed=18.2x    frame=22735 fps=437 q=-0.0 size=N/A time=00:15:48.23 bitrate=N/A speed=18.2x    frame=22979 fps=437 q=-0.0 size=N/A time=00:15:58.41 bitrate=N/A speed=18.2x    frame=23166 fps=436 q=-0.0 size=N/A time=00:16:06.21 bitrate=N/A speed=18.2x    frame=23417 fps=437 q=-0.0 size=N/A time=00:16:16.68 bitrate=N/A speed=18.2x    frame=23681 fps=437 q=-0.0 size=N/A time=00:16:27.69 bitrate=N/A speed=18.2x    frame=23932 fps=438 q=-0.0 size=N/A time=00:16:38.16 bitrate=N/A speed=18.3x    frame=24210 fps=439 q=-0.0 size=N/A time=00:16:49.75 bitrate=N/A speed=18.3x    frame=24453 fps=439 q=-0.0 size=N/A time=00:16:59.89 bitrate=N/A speed=18.3x    frame=24708 fps=440 q=-0.0 size=N/A time=00:17:10.52 bitrate=N/A speed=18.3x    frame=24926 fps=439 q=-0.0 size=N/A time=00:17:19.62 bitrate=N/A speed=18.3x    frame=25129 fps=439 q=-0.0 size=N/A time=00:17:28.08 bitrate=N/A speed=18.3x    frame=25306 fps=438 q=-0.0 size=N/A time=00:17:35.47 bitrate=N/A speed=18.3x    frame=25540 fps=438 q=-0.0 size=N/A time=00:17:45.23 bitrate=N/A speed=18.3x    frame=25762 fps=438 q=-0.0 size=N/A time=00:17:54.49 bitrate=N/A speed=18.3x    frame=25991 fps=438 q=-0.0 size=N/A time=00:18:04.04 bitrate=N/A speed=18.3x    frame=26227 fps=439 q=-0.0 size=N/A time=00:18:13.88 bitrate=N/A speed=18.3x    frame=26455 fps=439 q=-0.0 size=N/A time=00:18:23.39 bitrate=N/A speed=18.3x    frame=26688 fps=439 q=-0.0 size=N/A time=00:18:33.11 bitrate=N/A speed=18.3x    frame=26922 fps=439 q=-0.0 size=N/A time=00:18:42.87 bitrate=N/A speed=18.3x    frame=27171 fps=439 q=-0.0 size=N/A time=00:18:53.25 bitrate=N/A speed=18.3x    frame=27418 fps=439 q=-0.0 size=N/A time=00:19:03.55 bitrate=N/A speed=18.3x    frame=27677 fps=440 q=-0.0 size=N/A time=00:19:14.36 bitrate=N/A speed=18.3x    frame=27906 fps=440 q=-0.0 size=N/A time=00:19:23.91 bitrate=N/A speed=18.4x    frame=28159 fps=440 q=-0.0 size=N/A time=00:19:34.46 bitrate=N/A speed=18.4x    frame=28407 fps=441 q=-0.0 size=N/A time=00:19:44.80 bitrate=N/A speed=18.4x    frame=28677 fps=441 q=-0.0 size=N/A time=00:19:56.06 bitrate=N/A speed=18.4x    frame=28912 fps=442 q=-0.0 size=N/A time=00:20:05.87 bitrate=N/A speed=18.4x    frame=29172 fps=442 q=-0.0 size=N/A time=00:20:16.71 bitrate=N/A speed=18.4x    frame=29402 fps=442 q=-0.0 size=N/A time=00:20:26.30 bitrate=N/A speed=18.4x    frame=29663 fps=442 q=-0.0 size=N/A time=00:20:37.19 bitrate=N/A speed=18.5x    frame=29932 fps=443 q=-0.0 size=N/A time=00:20:48.41 bitrate=N/A speed=18.5x    frame=30189 fps=444 q=-0.0 size=N/A time=00:20:59.13 bitrate=N/A speed=18.5x    frame=30455 fps=444 q=-0.0 size=N/A time=00:21:10.22 bitrate=N/A speed=18.5x    frame=30723 fps=445 q=-0.0 size=N/A time=00:21:21.40 bitrate=N/A speed=18.5x    frame=30953 fps=445 q=-0.0 size=N/A time=00:21:30.99 bitrate=N/A speed=18.5x    frame=31198 fps=445 q=-0.0 size=N/A time=00:21:41.21 bitrate=N/A speed=18.6x    frame=31456 fps=445 q=-0.0 size=N/A time=00:21:51.97 bitrate=N/A speed=18.6x    frame=31723 fps=446 q=-0.0 size=N/A time=00:22:03.11 bitrate=N/A speed=18.6x    frame=31961 fps=446 q=-0.0 size=N/A time=00:22:13.04 bitrate=N/A speed=18.6x    frame=32177 fps=446 q=-0.0 size=N/A time=00:22:22.04 bitrate=N/A speed=18.6x    frame=32439 fps=446 q=-0.0 size=N/A time=00:22:32.97 bitrate=N/A speed=18.6x    frame=32664 fps=446 q=-0.0 size=N/A time=00:22:42.36 bitrate=N/A speed=18.6x    frame=32916 fps=446 q=-0.0 size=N/A time=00:22:52.87 bitrate=N/A speed=18.6x    frame=33070 fps=445 q=-0.0 size=N/A time=00:22:59.29 bitrate=N/A speed=18.6x    frame=33277 fps=445 q=-0.0 size=N/A time=00:23:07.92 bitrate=N/A speed=18.6x    frame=33513 fps=445 q=-0.0 size=N/A time=00:23:17.77 bitrate=N/A speed=18.6x    frame=33712 fps=445 q=-0.0 size=N/A time=00:23:26.07 bitrate=N/A speed=18.5x    frame=33904 fps=444 q=-0.0 size=N/A time=00:23:34.07 bitrate=N/A speed=18.5x    frame=34140 fps=444 q=-0.0 size=N/A time=00:23:43.92 bitrate=N/A speed=18.5x    frame=34373 fps=444 q=-0.0 size=N/A time=00:23:53.64 bitrate=N/A speed=18.5x    [Parsed_ssim_10 @ 000002ea0bc73a40] SSIM Y:0.992355 (21.166300) U:0.993166 (21.653146) V:0.992127 (21.038636) All:0.992452 (21.221818)
[out#0/null @ 000002ea00000ec0] video:14858KiB audio:270420KiB subtitle:0KiB other streams:0KiB global headers:0KiB muxing overhead: unknown
frame=34578 fps=445 q=-0.0 Lsize=N/A time=00:24:02.19 bitrate=N/A speed=18.5x    
